<svg id="eU6O7r4s3nt1" xmlns="http://www.w3.org/2000/svg" xmlns:xlink="http://www.w3.org/1999/xlink" viewBox="0 0 300 300" shape-rendering="geometricPrecision" text-rendering="geometricPrecision"><ellipse rx="150" ry="150" transform="translate(150 150)" fill="#6969b3" stroke-width="0"/><path d="M69.999999,275.999999c-4.171385-20.767803,30-106,30-106l30-19.999999c0,0-15.796472-10.537035-19.716161-20.000001s-5.338584-28.563624,1-40s24.565189-23,38.716161-23s30.945255,11.563625,37.283839,23s6.919689,30.537034,3,40-20.283839,20-20.283839,20l30,20c0,0,45.050856,95.949288,30,106s-31.437939,20.772817-79.716161,24c15.192851,2.532142-44.76647,1.992136-80.283839-24Z" transform="translate(.293282 0.000001)" fill="#b7cfde" stroke="#3f5787" stroke-width="0.6"/></svg>
